<svg id="Layer_1" data-name="Layer 1" xmlns="http://www.w3.org/2000/svg" viewBox="0 0 122.88 122.78"><defs><style>.cls-1{fill:#a50034;}.cls-2{fill:#fff;}</style></defs><title>lg</title><path class="cls-1" d="M61.44,122.78A61.39,61.39,0,1,0,0,61.4a61.41,61.41,0,0,0,61.44,61.38Z"/><polygon class="cls-2" points="58.97 34.46 58.97 88.33 76.09 88.33 76.09 83.48 63.9 83.48 63.9 34.46 58.97 34.46 58.97 34.46"/><path class="cls-2" d="M41.82,49.16a7.37,7.37,0,1,0-7.36-7.36,7.37,7.37,0,0,0,7.36,7.36Z"/><path class="cls-2" d="M63.9,10C63.26,10,62,10,61.46,10a51.41,51.41,0,1,0,51.41,51.43V59.09H76.14v4.74H108c0,.1,0,.6,0,.73A46.6,46.6,0,0,1,28.49,94.32a46.59,46.59,0,0,1,33-79.54c.53,0,1.84,0,2.44,0V10Z"/></svg>