<svg id="Layer_1" data-name="Layer 1" xmlns="http://www.w3.org/2000/svg" viewBox="0 0 122.88 18.72"><defs><style>.cls-1{fill:red;}</style></defs><title>toshiba</title><path class="cls-1" d="M117.57,18.4h5.31L117.4.33h-7.54L104.39,18.4h5.31l1-3.35h5.94l1,3.35ZM38,12.47h4.86c0,.87.12,1.46.54,1.78s.92.49,2.36.49,2.89,0,2.89-1.7c0-1.35-.84-1.65-2.41-1.74C42.4,11.1,41,11,39.56,9.92c-1-.73-1.5-2.16-1.5-4.08,0-3.27,1.15-4.42,2.79-5.22S49.22-.21,51,.62c2.26,1,2.32,3.29,2.32,5.38H48.49c0-1.07-.25-1.37-.45-1.56a3.23,3.23,0,0,0-2.25-.55c-1.26,0-2.71.06-2.71,1.58,0,1.16.5,1.65,1.82,1.74,1.81.11,5.38.23,6.65,1C53.34,9.24,53.8,10.67,53.8,13c0,3.36-1.21,4.35-2.88,5.09-1.94.85-8.39.85-10.49-.07C38.08,17,38,15,38,12.47ZM99.79,9c2.27-.58,2.94-1.94,2.94-3.9,0-4-2.5-4.72-6-4.72H87.47V18.4h9.66c4.45,0,6-1.92,6-4.87,0-2-.47-3.87-3.29-4.58Zm-73.3,9.77c5.45,0,8.09-1,8.46-5.88.09-1.17.11-2.37.11-3.48S35,7.05,35,5.88C34.58,1,31.94,0,26.49,0S18.41,1,18,5.88c-.09,1.17-.11,2.37-.11,3.48s0,2.31.11,3.48c.37,4.92,3,5.88,8.45,5.88ZM111.81,11l1.81-6.24h0L115.46,11ZM38,12.47ZM92.57,11H96.1c1.43,0,1.73.63,1.73,1.65a1.51,1.51,0,0,1-1.73,1.64H92.57V11Zm0-6.51H96.1A1.33,1.33,0,0,1,97.6,6a1.37,1.37,0,0,1-1.5,1.46H92.57V4.46ZM62.28,6.92V.33H57.19V18.4h5.09v-7h5.93v7h5.1V.33h-5.1V6.92ZM82.92,18.4V.33H77.79V18.4ZM0,.33V4.84H5.4V18.41h5.41V4.84h5.4V.33Zm23.07,9c0-1,0-1.58,0-2,.14-2.79,1.24-3.12,3.38-3.12s3.25.33,3.38,3.12c0,.43.05,1,.05,2s0,1.58-.05,2c-.13,2.79-1.23,3.11-3.38,3.11s-3.24-.32-3.38-3.11c0-.44,0-1,0-2Z"/></svg>